#!OML:ASF E:\emotionWalksFemale\Project 1\Capture day 1\Session 1\Female1.ASF
:FULLY-SPECIFIED
:DEGREES
1691
root 8.74451 15.2501 40.2848 -177.213 -2.61239 -537.844
lowerback 6.28487 4.47144 3.31251
upperback -4.58674 6.21686 -0.335215
thorax -7.95919 2.80728 -2.98561
lowerneck -1.32553 -5.86034 -3.59569
upperneck 5.17081 -7.82561 -9.53134
head 1.59917 -4.36879 -2.5593
rclavicle -2.00524e-014 -7.35503e-015
rhumerus -1.24328 36.2073 -70.3109
rradius 71.4176
rwrist 14.5857
rhand -1.48628 -54.0231
rfingers 7.12502
rthumb 24.166 -442.521
lclavicle -2.00524e-014 -7.35503e-015
lhumerus -47.245 3.79473 79.5027
lradius 41.1186
lwrist -9.3488
lhand -11.3171 -32.8135
lfingers 7.12502
lthumb 14.715 -3.35577
rfemur -6.17714 17.5983 23.0476
rtibia 25.2887
rfoot -22.7726 -27.7866
rtoes -10.8951
lfemur -15.0828 -18.1344 -23.139
ltibia 36.9178
lfoot -22.2604 2.95355
ltoes 8.20482
1692
root 8.7737 15.241 40.2355 -177.751 -2.31951 -537.737
lowerback 5.98647 4.76484 3.48842
upperback -4.29622 6.62251 -0.26512
thorax -7.43469 3.02512 -3.00758
lowerneck -1.31158 -5.87621 -3.86813
upperneck 5.24706 -7.83401 -9.33186
head 1.63907 -4.37486 -2.45091
rclavicle -5.23425e-014 -1.5207e-014
rhumerus -2.83391 37.078 -71.0801
rradius 74.0227
rwrist 13.6873
rhand -3.64587 -53.0644
rfingers 7.12502
rthumb 22.094 -441.822
lclavicle -5.23425e-014 -1.5207e-014
lhumerus -47.234 4.0713 79.5017
lradius 41.6759
lwrist -8.67106
lhand -11.106 -32.9899
lfingers 7.12502
lthumb 14.9184 -3.54708
rfemur -5.37296 17.4262 23.3933
rtibia 25.1546
rfoot -22.7955 -27.3797
rtoes -10.9296
lfemur -13.9836 -17.9419 -23.722
ltibia 36.9302
lfoot -22.6523 5.02913
ltoes 11.2386
1693
root 8.82796 15.241 40.25 -177.617 -3.32623 -537.677
lowerback 5.69209 4.59527 3.42484
upperback -4.15662 6.3799 -0.21721
thorax -7.14335 2.92406 -2.86068
lowerneck -1.25756 -5.89077 -3.92083
upperneck 4.93672 -7.87713 -9.30079
head 1.53067 -4.37953 -2.41827
rclavicle 1.27906e-014 4.96962e-016
rhumerus -3.99064 37.885 -71.7682
rradius 76.3002
rwrist 12.7062
rhand -6.77593 -51.4279
rfingers 7.12502
rthumb 19.0863 -440.511
lclavicle 1.27906e-014 4.96962e-016
lhumerus -46.7852 4.488 79.4818
lradius 42.1283
lwrist -8.12381
lhand -10.9689 -33.0641
lfingers 7.12502
lthumb 15.0504 -3.63112
rfemur -5.44346 17.2041 23.7148
rtibia 25.168
rfoot -23.1058 -27.976
rtoes -10.2974
lfemur -14.1514 -17.799 -23.7154
ltibia 36.8698
lfoot -22.7095 5.67521
ltoes 14.1116
1694
root 8.87955 15.2416 40.2585 -177.364 -4.20132 -537.735
lowerback 5.54035 4.48246 3.18403
upperback -4.22579 6.20003 -0.199993
thorax -7.16802 2.84531 -2.68225
lowerneck -1.28279 -5.92783 -3.85399
upperneck 4.87066 -7.93568 -9.5053
head 1.50157 -4.41263 -2.49545
rclavicle -6.40211e-014 -1.20265e-014
rhumerus -5.61995 38.7589 -72.7416
rradius 78.5033
rwrist 12.0733
rhand -8.9331 -49.7932
rfingers 7.12502
rthumb 17.0108 -439.068
lclavicle -6.40211e-014 -1.20265e-014
lhumerus -46.9147 4.19445 79.7912
lradius 43.0895
lwrist -7.08045
lhand -11.0881 -32.8534
lfingers 7.12502
lthumb 14.9356 -3.41189
rfemur -5.67612 17.0555 23.8473
rtibia 25.2157
rfoot -23.5031 -28.2492
rtoes -8.62262
lfemur -14.3524 -17.588 -23.821
ltibia 36.701
lfoot -22.8511 6.8702
ltoes 12.5387
1695
root 8.92947 15.2418 40.2641 -177.145 -5.01387 -537.795
lowerback 5.28312 4.40918 2.99115
upperback -4.22428 6.07017 -0.264129
thorax -7.03784 2.79364 -2.60629
lowerneck -1.30938 -5.99169 -3.69077
upperneck 4.71089 -8.02461 -9.50844
head 1.44522 -4.44224 -2.51979
rclavicle 5.08143e-014 3.27995e-015
rhumerus -7.28041 39.4405 -73.8741
rradius 80.5818
rwrist 11.7589
rhand -10.0719 -48.5074
rfingers 7.12502
rthumb 15.9144 -437.874
lclavicle 5.08143e-014 3.27995e-015
lhumerus -46.7063 4.07358 79.8457
lradius 43.6382
lwrist -6.5683
lhand -11.0585 -32.8647
lfingers 7.12502
lthumb 14.9641 -3.42529
rfemur -5.90193 16.9254 23.984
rtibia 25.3537
rfoot -24.1421 -28.428
rtoes -5.46641
lfemur -14.5118 -17.4477 -23.9254
ltibia 36.512
lfoot -23.128 7.80865
ltoes 12.7923
1696
root 8.97931 15.2425 40.2706 -177.046 -5.82207 -537.892
lowerback 5.24175 4.33272 2.66008
upperback -4.21704 5.93769 -0.288289
thorax -7.044 2.74514 -2.43279
lowerneck -1.38767 -6.05906 -3.5365
upperneck 4.52584 -8.11413 -9.46713
head 1.39183 -4.47037 -2.52962
rclavicle -2.20092e-014 7.45443e-015
rhumerus -9.23484 40.0089 -75.1849
rradius 82.7255
rwrist 11.5167
rhand -11.187 -47.6805
rfingers 7.12502
rthumb 14.8404 -437.129
lclavicle -2.20092e-014 7.45443e-015
lhumerus -46.6715 3.8193 79.9973
lradius 44.2531
lwrist -6.23987
lhand -11.3714 -32.7593
lfingers 7.12502
lthumb 14.6627 -3.29772
rfemur -5.94621 16.8552 24.1609
rtibia 25.4521
rfoot -24.5569 -28.8884
rtoes -5.9085
lfemur -14.475 -18.0485 -24.1092
ltibia 36.2937
lfoot -23.3587 9.00671
ltoes 14.0162
1697
root 9.02874 15.2379 40.2743 -177.083 -6.65275 -537.89
lowerback 5.42024 4.23621 2.36558
upperback -4.24713 5.79628 -0.187286
thorax -7.22623 2.68807 -2.16945
lowerneck -1.47397 -6.09477 -3.52292
upperneck 4.51913 -8.15908 -9.59511
head 1.39774 -4.49869 -2.57798
rclavicle -4.34407e-014 9.93923e-016
rhumerus -11.5581 40.7131 -76.6736
rradius 84.8169
rwrist 11.3054
rhand -12.5221 -47.2242
rfingers 7.12502
rthumb 13.5538 -436.763
lclavicle -4.34407e-014 9.93923e-016
lhumerus -46.7793 3.64323 80.2846
lradius 44.7593
lwrist -5.94942
lhand -11.7638 -32.7239
lfingers 7.12502
lthumb 14.2846 -3.23526
rfemur -5.81753 16.7596 24.4951
rtibia 25.5029
rfoot -24.8349 -29.4181
rtoes -6.0549
lfemur -14.3338 -18.1922 -24.158
ltibia 36.0888
lfoot -23.3652 9.8916
ltoes 11.1207
1698
root 9.07559 15.2346 40.2765 -177.109 -7.54473 -537.899
lowerback 5.54019 4.10489 2.10268
upperback -4.33415 5.60647 -0.0771988
thorax -7.43395 2.60417 -1.90497
lowerneck -1.21887 -6.07653 -3.64391
upperneck 4.53492 -8.15991 -9.72533
head 1.35761 -4.50459 -2.58898
rclavicle -3.43897e-014 -4.87022e-015
rhumerus -14.1706 41.5152 -78.4376
rradius 86.5556
rwrist 11.5009
rhand -13.7679 -46.8688
rfingers 7.12502
rthumb 12.3528 -436.484
lclavicle -3.43897e-014 -4.87022e-015
lhumerus -46.8806 3.56579 80.4921
lradius 44.9865
lwrist -5.75816
lhand -11.6524 -32.8361
lfingers 7.12502
lthumb 14.3919 -3.35508
rfemur -5.66491 16.4108 24.7649
rtibia 25.4414
rfoot -25.1942 -29.8161
rtoes -6.17503
lfemur -14.2485 -18.443 -24.1515
ltibia 35.9134
lfoot -23.6462 10.3158
ltoes 9.84114
1699
root 9.1163 15.2303 40.2709 -177.135 -8.35011 -538.029
lowerback 5.38771 3.93961 1.85089
upperback -4.2863 5.3609 -0.0484197
thorax -7.32974 2.50109 -1.69495
lowerneck -0.760722 -6.01062 -3.98754
upperneck 4.24754 -8.12427 -9.48856
head 1.20931 -4.46388 -2.42257
rclavicle -6.29153e-014 -4.27387e-015
rhumerus -16.6723 42.2117 -80.2883
rradius 88.0387
rwrist 12.3502
rhand -14.6363 -46.3394
rfingers 7.12502
rthumb 11.5155 -436.003
lclavicle -6.29153e-014 -4.27387e-015
lhumerus -46.9007 3.3405 80.6944
lradius 45.2081
lwrist -5.42848
lhand -11.5408 -32.8024
lfingers 7.12502
lthumb 14.4995 -3.32906
rfemur -5.50108 16.1176 24.8618
rtibia 25.3855
rfoot -25.8373 -30.0525
rtoes -5.37143
lfemur -14.1209 -18.7865 -24.2844
ltibia 35.7232
lfoot -23.9824 10.6918
ltoes 10.0655
1700
root 9.15706 15.2226 40.2637 -177.306 -9.11214 -537.754
lowerback 5.17606 3.78419 2.03288
upperback -4.06926 5.17175 0.0386584
thorax -6.9743 2.41382 -1.65792
lowerneck -0.932223 -5.97431 -3.9816
upperneck 4.15496 -8.06692 -9.48285
head 1.21133 -4.43336 -2.42579
rclavicle 3.03084e-014 4.57205e-015
rhumerus -19.0403 42.5083 -82.1854
rradius 89.3481
rwrist 13.5132
rhand -15.0263 -45.5895
rfingers 7.12502
rthumb 11.1394 -435.274
lclavicle 3.03084e-014 4.57205e-015
lhumerus -46.5727 2.995 80.946
lradius 45.2537
lwrist -5.15191
lhand -11.9056 -32.867
lfingers 7.12502
lthumb 14.148 -3.36877
rfemur -5.1973 16.1809 25.4699
rtibia 25.2928
rfoot -26.5221 -30.5499
rtoes -4.31919
lfemur -13.9173 -19.1427 -23.9708
ltibia 35.5721
lfoot -24.2056 11.1306
ltoes 9.14236
1701
root 9.20651 15.2247 40.2741 -177.175 -10.0875 -537.766
lowerback 5.08956 3.63515 1.78418
upperback -3.99022 4.95174 0.0398453
thorax -6.86899 2.32225 -1.48696
lowerneck -0.875665 -6.05554 -3.86246
upperneck 3.89311 -8.20237 -9.5853
head 1.10455 -4.48659 -2.46803
rclavicle -5.85607e-014 -3.67752e-015
rhumerus -21.6943 42.3501 -84.1851
rradius 90.5945
rwrist 14.6581
rhand -14.3224 -44.8847
rfingers 7.12502
rthumb 11.8183 -434.531
lclavicle -5.85607e-014 -3.67752e-015
lhumerus -46.0917 2.99855 81.0322
lradius 45.2307
lwrist -5.66366
lhand -12.1746 -32.9773
lfingers 7.12502
lthumb 13.8887 -3.46111
rfemur -5.20384 16.5122 25.7775
rtibia 25.1582
rfoot -27.2872 -31.3253
rtoes -1.33508
lfemur -14.1124 -19.8269 -23.7079
ltibia 35.4491
lfoot -24.4911 11.222
ltoes 8.87597
1702
root 9.25576 15.2185 40.2866 -177.07 -11.1802 -537.858
lowerback 5.14359 3.45825 1.40978
upperback -3.95007 4.68932 0.0662636
thorax -6.89789 2.21303 -1.22777
lowerneck -1.22264 -6.11217 -3.62247
upperneck 3.91394 -8.2582 -9.87101
head 1.14852 -4.52697 -2.6185
rclavicle -9.22485e-015 -1.13307e-014
rhumerus -24.7384 41.6004 -86.3476
rradius 91.6308
rwrist 15.9484
rhand -12.6662 -43.1841
rfingers 7.12502
rthumb 13.415 -432.732
lclavicle -9.22485e-015 -1.13307e-014
lhumerus -45.7957 2.62121 81.3211
lradius 45.2529
lwrist -5.82152
lhand -12.0348 -32.8884
lfingers 7.12502
lthumb 14.0235 -3.38148
rfemur -5.15305 16.6963 26.0498
rtibia 25.0234
rfoot -27.7745 -32.2892
rtoes -0.073047
lfemur -14.3197 -20.5374 -23.4753
ltibia 35.3343
lfoot -24.727 11.0384
ltoes 8.34441
1703
root 9.28891 15.2018 40.2798 -177.263 -12.0498 -537.701
lowerback 5.0681 3.29908 1.48992
upperback -3.80155 4.48856 0.138831
thorax -6.70122 2.11853 -1.16481
lowerneck -1.20542 -6.17284 -3.70714
upperneck 3.85862 -8.34833 -9.91126
head 1.12632 -4.5726 -2.61531
rclavicle -3.60297e-015 7.95139e-016
rhumerus -27.547 40.7511 -88.6334
rradius 92.2628
rwrist 17.1113
rhand -11.9723 -41.2939
rfingers 7.12502
rthumb 14.0837 -430.797
lclavicle -3.60297e-015 7.95139e-016
lhumerus -45.4996 2.44708 81.5631
lradius 44.9706
lwrist -6.02997
lhand -12.0339 -33.0447
lfingers 7.12502
lthumb 14.0243 -3.53781
rfemur -4.78531 16.8363 26.5982
rtibia 24.9366
rfoot -28.3015 -33.2543
rtoes -0.164477
lfemur -14.1654 -21.0434 -23.1557
ltibia 35.2231
lfoot -24.912 10.7546
ltoes 6.46268
1704
root 9.32178 15.1981 40.2752 -177.508 -12.8877 -537.824
lowerback 5.1463 3.15146 1.30853
upperback -3.64442 4.28157 0.112817
thorax -6.5958 2.03002 -1.0693
lowerneck -1.05776 -6.20833 -3.73094
upperneck 3.7426 -8.41581 -9.90567
head 1.0623 -4.597 -2.59883
rclavicle 4.60559e-014 9.83984e-015
rhumerus -29.2825 40.84 -90.4791
rradius 92.608
rwrist 17.368
rhand -11.9045 -41.0096
rfingers 7.12502
rthumb 14.1491 -430.508
lclavicle 4.60559e-014 9.83984e-015
lhumerus -45.3019 1.98108 81.9145
lradius 44.7221
lwrist -6.1108
lhand -12.3938 -33.0303
lfingers 7.12502
lthumb 13.6775 -3.49968
rfemur -4.28927 17.3739 26.8792
rtibia 24.7837
rfoot -29.7391 -33.9162
rtoes 4.64961
lfemur -13.9706 -21.2163 -23.118
ltibia 35.1698
lfoot -25.1415 10.0797
ltoes 3.48714
1705
root 9.36834 15.1991 40.2884 -177.313 -14.0118 -537.977
lowerback 5.12241 2.94458 0.879146
upperback -3.68212 3.96879 0.104393
thorax -6.65754 1.89441 -0.807149
lowerneck -0.913182 -6.25505 -3.69124
upperneck 3.75101 -8.49061 -9.97514
head 1.03267 -4.63239 -2.62207
rclavicle -7.74018e-015 4.07509e-015
rhumerus -33.0503 37.3046 -93.0065
rradius 93.0835
rwrist 19.4438
rhand -10.1416 -37.5978
rfingers 7.12502
rthumb 15.8473 -426.969
lclavicle -7.74018e-015 4.07509e-015
lhumerus -44.9759 2.08593 81.9397
lradius 44.4951
lwrist -6.86694
lhand -11.9649 -33.0583
lfingers 7.12502
lthumb 14.0908 -3.55605
rfemur -4.27596 17.654 27.0721
rtibia 24.5822
rfoot -30.977 -34.7873
rtoes 8.01249
lfemur -14.476 -21.2362 -22.787
ltibia 35.1927
lfoot -25.4046 9.05091
ltoes 0.623545
